HIERARCHY
ROOT RootJoint
{
    OFFSET   0.000000   0.000000   0.000000
    CHANNELS 6 Xposition Yposition Zposition Xrotation Yrotation Zrotation
    JOINT pelvis_lowerback
    {
        OFFSET   0.000000   0.093605   0.000000
        CHANNELS 3 Xrotation Yrotation Zrotation
        JOINT lowerback_torso
        {
            OFFSET   0.000000   0.100000   0.000000
            CHANNELS 3 Xrotation Yrotation Zrotation
            JOINT torso_head
            {
                OFFSET   0.000000   0.282350   0.000000
                CHANNELS 3 Xrotation Yrotation Zrotation
                End Site
                {
                    OFFSET   0.000000   0.192650   0.000000
                }
            }
            JOINT rTorso_Clavicle
            {
                OFFSET  -0.001000   0.157500   0.000000
                CHANNELS 3 Xrotation Yrotation Zrotation
                JOINT rShoulder
                {
                    OFFSET  -0.117647   0.000000   0.000000
                    CHANNELS 3 Xrotation Yrotation Zrotation
                    JOINT rElbow
                    {
                        OFFSET  -0.245000   0.000000   0.000000
                        CHANNELS 3 Xrotation Yrotation Zrotation
                        JOINT rWrist
                        {
                            OFFSET  -0.240000   0.000000   0.000000
                            CHANNELS 3 Xrotation Yrotation Zrotation
                            End Site
                            {
                                OFFSET  -0.116353  -0.002500   0.000000
                            }
                        }
                    }
                }
            }
            JOINT lTorso_Clavicle
            {
                OFFSET   0.001000   0.157500   0.000000
                CHANNELS 3 Xrotation Yrotation Zrotation
                JOINT lShoulder
                {
                    OFFSET   0.117647   0.000000   0.000000
                    CHANNELS 3 Xrotation Yrotation Zrotation
                    JOINT lElbow
                    {
                        OFFSET   0.245000   0.000000   0.000000
                        CHANNELS 3 Xrotation Yrotation Zrotation
                        JOINT lWrist
                        {
                            OFFSET   0.240000   0.000000   0.000000
                            CHANNELS 3 Xrotation Yrotation Zrotation
                            End Site
                            {
                                OFFSET   0.116353  -0.002500   0.000000
                            }
                        }
                    }
                }
            }
        }
    }
    JOINT rHip
    {
        OFFSET  -0.100000  -0.051395   0.000000
        CHANNELS 3 Xrotation Yrotation Zrotation
        JOINT rKnee
        {
            OFFSET   0.000000  -0.410000   0.000000
            CHANNELS 3 Xrotation Yrotation Zrotation
            JOINT rAnkle
            {
                OFFSET   0.000000  -0.390000   0.000000
                CHANNELS 3 Xrotation Yrotation Zrotation
                JOINT rToeJoint
                {
                    OFFSET   0.000000  -0.050000   0.130000
                    CHANNELS 3 Xrotation Yrotation Zrotation
                    End Site
                    {
                        OFFSET  -0.010000   0.002000   0.060000
                    }
                }
            }
        }
    }
    JOINT lHip
    {
        OFFSET   0.100000  -0.051395   0.000000
        CHANNELS 3 Xrotation Yrotation Zrotation
        JOINT lKnee
        {
            OFFSET   0.000000  -0.410000   0.000000
            CHANNELS 3 Xrotation Yrotation Zrotation
            JOINT lAnkle
            {
                OFFSET   0.000000  -0.390000   0.000000
                CHANNELS 3 Xrotation Yrotation Zrotation
                JOINT lToeJoint
                {
                    OFFSET   0.000000  -0.050000   0.130000
                    CHANNELS 3 Xrotation Yrotation Zrotation
                    End Site
                    {
                        OFFSET   0.010000   0.002000   0.060000
                    }
                }
            }
        }
    }
}
MOTION
Frames: 11
Frame Time:   0.008333
 -2.777679   0.905001   3.931921 -170.695855 -18.743199 -173.998087  10.662331   2.795560  -0.159440  -1.169608   2.248136   0.014668  -0.376338  -1.252165   2.797945  -4.283615  -7.851063   1.990998 -22.974401 -11.045363  41.372999   0.008742  65.345225  -0.005299  -3.213054   3.330998 -24.289860   4.487639  14.422052  -3.107510  -0.350635  11.429651 -52.938567   0.019077 -51.430103   0.022403  -3.604580  -0.618457  19.457234   5.714774   5.551939  -4.199446  27.569697   0.004517  -0.005984 -16.680816   3.840859   0.931583 -11.587267  -0.000703   0.011296  -5.157810  -7.725002   0.477365  22.471751  -0.013794   0.015215  -9.290436   2.179827   0.470392  -2.075656   0.001348  -0.001181
 -2.781879   0.903363   3.929097 -170.727376 -18.757494 -173.880590  10.701564   2.826675  -0.108896  -1.287603   2.377513   0.045048  -0.426901  -1.330561   2.876423  -4.247437  -8.050010   2.205329 -22.530557 -11.161930  41.732137   0.005942  65.233545  -0.003791  -3.161055   3.528500 -24.156380   4.400950  14.779603  -3.282082  -0.842096  11.791455 -52.787309   0.019240 -51.093525   0.023166  -3.719440  -0.510979  19.587489   5.025634   5.327161  -4.421245  29.541844   0.003751  -0.010035 -16.835147   3.521507   1.224375 -13.141977   0.000787   0.017979  -4.745624  -7.535855   0.029102  22.299770  -0.011723   0.012082  -9.782395   2.073820   0.874793  -1.763993   0.001122  -0.000959
 -2.786133   0.901305   3.926254 -170.708416 -18.817406 -173.718108  10.757153   2.828478  -0.073957  -1.369902   2.475717   0.067248  -0.464178  -1.400327   2.938807  -4.182824  -8.265727   2.440676 -22.084616 -11.300246  42.077524   0.003591  65.105017  -0.002541  -3.149577   3.627294 -24.026053   4.289606  15.104619  -3.425240  -1.336735  12.121841 -52.617472   0.018917 -50.786977   0.023087  -3.825312  -0.447314  19.814247   4.339737   5.082394  -4.662185  31.548175   0.002980  -0.012929 -16.905508   3.180829   1.415696 -15.505408   0.000035   0.027743  -4.284689  -7.360629  -0.431058  22.213229  -0.009720   0.009585 -10.243146   1.971321   1.251527  -1.509332   0.000950  -0.000669
 -2.790474   0.898993   3.923378 -170.668453 -18.977198 -173.568260  10.798631   2.786152  -0.003059  -1.444332   2.526160   0.110019  -0.495610  -1.465592   2.993721  -4.099351  -8.499060   2.685753 -21.646499 -11.451799  42.401942   0.001736  64.971694  -0.001596  -3.167235   3.656355 -23.911686   4.175842  15.399191  -3.560945  -1.809438  12.423122 -52.453991   0.018258 -50.503700   0.022483  -3.918617  -0.411661  20.049660   3.699651   4.874333  -4.887175  33.531589   0.003414  -0.013235 -17.064122   2.879287   1.555899 -17.252449  -0.001683   0.029256  -3.802453  -7.203455  -0.850218  22.158235  -0.007997   0.007571 -10.671343   1.872808   1.602079  -1.272673   0.000832  -0.000237
 -2.794793   0.898121   3.920680 -170.500583 -19.016742 -173.056664  10.980248   2.755622  -0.193996  -1.463707   2.574335   0.053446  -0.522574  -1.524831   3.038526  -3.997112  -8.702825   3.064972 -21.199185 -11.611705  42.772783  -0.000054  64.827130  -0.000735  -3.207188   3.628130 -23.779547   4.045029  15.639129  -3.755255  -2.274061  12.692943 -52.295666   0.017144 -50.219764   0.021485  -4.026158  -0.329293  20.285171   3.233757   4.680194  -5.466434  35.375458   0.003192  -0.014544 -17.000916   2.519494   1.712363 -18.108682  -0.002519   0.027928  -3.631194  -7.059535  -1.562593  22.515654  -0.005404   0.006295 -11.058595   1.748120   1.880187  -0.981922   0.000688  -0.000206
 -2.799103   0.897516   3.917783 -170.339655 -18.984555 -172.653940  11.091096   2.748657  -0.250508  -1.468493   2.635639   0.024408  -0.538434  -1.579068   3.070960  -3.887369  -8.900288   3.392973 -20.767637 -11.760187  43.122683  -0.001213  64.689731  -0.000277  -3.269546   3.547172 -23.596916   3.948016  15.885647  -3.940935  -2.678717  12.950241 -52.181160   0.015918 -49.961497   0.020175  -4.130420  -0.249423  20.456478   2.788894   4.491848  -5.947157  37.104744   0.002145  -0.016294 -16.878294   2.162597   1.858651 -18.214184  -0.002225   0.022964  -3.356002  -6.878320  -2.146402  22.754314  -0.003695   0.005145 -11.418086   1.644561   2.130605  -0.777324   0.000597  -0.000173
 -2.803360   0.897014   3.914779 -170.199015 -18.933111 -172.307827  11.160893   2.735653  -0.256126  -1.491218   2.689302   0.029578  -0.556550  -1.630209   3.106232  -3.780673  -9.095219   3.688487 -20.362394 -11.900745  43.443288  -0.001867  64.561001  -0.000122  -3.335222   3.455289 -23.421189   3.867133  16.126940  -4.108290  -3.048451  13.195418 -52.073437   0.014741 -49.720850   0.018767  -4.231548  -0.171455  20.612794   2.360663   4.308910  -6.386400  38.728429   0.001011  -0.017635 -16.726290   1.824578   1.998601 -17.909297  -0.001416   0.016539  -3.050215  -6.702086  -2.669430  22.935469  -0.002501   0.004169 -11.765540   1.557902   2.368819  -0.590799   0.000526  -0.000145
 -2.807094   0.896248   3.912142 -170.022786 -18.837618 -172.009305  11.407781   2.737474  -0.265399  -1.579317   2.829192   0.049506  -0.607112  -1.624734   3.111520  -3.687550  -9.289117   3.961414 -19.939682 -12.091452  43.661104  -0.003336  64.289520   0.000464  -3.331905   3.499295 -23.214208   3.701068  16.264562  -4.320539  -3.686983  13.497900 -51.735579   0.012477 -49.656277   0.015855  -4.390531   0.055686  20.718878   1.444400   4.049115  -6.734514  41.370737  -0.003345  -0.024793 -16.321820   1.392162   2.291846 -17.055848  -0.001236   0.005408  -2.820670  -6.512080  -3.122833  23.320665  -0.001141   0.003394 -12.215065   1.490553   2.664270  -0.324937   0.000293  -0.000124
 -2.810631   0.895412   3.909366 -169.774388 -18.787417 -171.707798  11.672722   2.699066  -0.271005  -1.628629   2.924852   0.084906  -0.643360  -1.613708   3.109664  -3.581500  -9.490005   4.226974 -19.529372 -12.286903  43.857114  -0.004211  64.017459   0.000746  -3.353279   3.471519 -23.006927   3.497396  16.362836  -4.469589  -4.339537  13.754719 -51.372268   0.010406 -49.615114   0.013186  -4.513975   0.177419  20.899494   0.553817   3.799053  -7.062313  44.051673  -0.006918  -0.029433 -15.875739   0.982525   2.551576 -15.659214  -0.001308  -0.007641  -2.537405  -6.366478  -3.538824  23.741331  -0.000031   0.002840 -12.691194   1.406759   2.935281  -0.081080   0.000129  -0.000104
 -2.814042   0.894564   3.906443 -169.504385 -18.751919 -171.420268  11.916595   2.635500  -0.264518  -1.668538   2.982940   0.134106  -0.672642  -1.602460   3.105145  -3.469411  -9.695212   4.482374 -19.135199 -12.480507  44.038754  -0.004480  63.756884   0.000632  -3.388414   3.406918 -22.811242   3.287252  16.440544  -4.578707  -4.973272  13.979659 -51.008653   0.008612 -49.585737   0.010881  -4.610276   0.232127  21.104596  -0.294117   3.571523  -7.386464  46.600154  -0.009461  -0.032005 -15.447807   0.595493   2.795368 -14.296112  -0.001640  -0.017140  -2.222137  -6.240548  -3.918949  24.159097   0.000801   0.002411 -13.175995   1.318240   3.182134   0.142329   0.000026  -0.000086
 -2.817338   0.893720   3.903399 -169.230413 -18.717047 -171.152572  12.134889   2.553951  -0.243982  -1.710702   3.013025   0.195076  -0.699807  -1.591947   3.100316  -3.356281  -9.900213   4.724606 -18.760314 -12.669049  44.206844  -0.004312  63.509937   0.000236  -3.430258   3.324259 -22.634423   3.079551  16.504424  -4.662208  -5.579371  14.179306 -50.654568   0.007089 -49.563774   0.008934  -4.689209   0.247878  21.315673  -1.107107   3.369486  -7.707390  48.982576  -0.011171  -0.033148 -15.046790   0.235371   3.024810 -13.046350  -0.002058  -0.023280  -1.884880  -6.125303  -4.264794  24.562373   0.001392   0.002054 -13.662447   1.232343   3.407416   0.347093  -0.000034  -0.000071
